<svg 
    width="24" 
    height="24" 
    viewBox="0 0 24 24" 
    fill="currentColor"
    xmlns="http://www.w3.org/2000/svg">
    <path d="M0.028,11.185 C2.353,16.538 8.253,17.438 15.282,12.896 C18.537,15.909 19.361,19.477 16.651,23.064 C15.220,23.629 13.651,23.999 12,23.999 C5.373,23.999 0,18.627 0,12 C0,11.719 0.01,11.442 0.028,11.185 Z M11.004,8.863 C12.047,4.496 14.987,1.982 19.597,2.708 C22.283,4.899 24,8.252 24,12 C24,16.747 21.258,20.811 17.301,22.753 C20.906,17.632 17.962,12.215 11.004,8.863 Z M12,0 C14.574,0 16.955,0.809 18.844,2.186 C12.352,1.424 9.253,6.891 9.688,14.440 C5.421,15.747 1.952,14.789 0.119,10.310 C0.938,4.482 5.948,0 12,0 Z" fill="#662D91" />
</svg>
